<?xml version="1.0" encoding="iso-8859-1"?>
<!-- Generator: Adobe Illustrator 19.0.0, SVG Export Plug-In . SVG Version: 6.00 Build 0)  -->
<svg version="1.1" id="Layer_1" xmlns="http://www.w3.org/2000/svg" xmlns:xlink="http://www.w3.org/1999/xlink" x="0px" y="0px"
	 viewBox="0 0 512 512" style="enable-background:new 0 0 512 512;" xml:space="preserve">
<path style="fill:#348E00;" d="M382.054,326.46c12.4,10.02,30.128,16.562,47.326,16.562c39.865,0,72.182-32.253,72.182-72.04
	c0-25.574-13.364-48.018-33.489-60.802c4.037-6.738,6.361-14.615,6.361-23.037c0-24.833-20.172-44.965-45.054-44.965
	c-24.883,0-47.326,20.132-47.326,44.965V326.46z"/>
<path style="fill:#D67F43;" d="M382.054,432.402V102.584H39.667v329.818h107.494V253.837c0-34.925,28.664-63.5,63.7-63.5l0,0
	c35.035,0,63.7,28.575,63.7,63.5v178.565H382.054z"/>
<g>
	<rect x="10.439" y="51.399" style="fill:#A54E31;" width="400.843" height="51.181"/>
	<rect x="20.877" y="432.399" style="fill:#A54E31;" width="145.807" height="28.195"/>
	<rect x="255.005" y="432.399" style="fill:#A54E31;" width="145.88" height="28.195"/>
</g>
<path d="M113.256,274.127h-0.13c-5.765,0-10.439,4.673-10.439,10.439c0,5.765,4.673,10.439,10.439,10.439h0.13
	c5.765,0,10.439-4.673,10.439-10.439C123.695,278.801,119.021,274.127,113.256,274.127z"/>
<path d="M308.452,295.004h0.13c5.765,0,10.439-4.673,10.439-10.439c0-5.765-4.673-10.439-10.439-10.439h-0.13
	c-5.765,0-10.439,4.673-10.439,10.439C298.013,290.331,302.687,295.004,308.452,295.004z"/>
<path d="M336.372,155.106h0.13c5.765,0,10.439-4.673,10.439-10.439s-4.673-10.439-10.439-10.439h-0.13
	c-5.765,0-10.439,4.673-10.439,10.439S330.607,155.106,336.372,155.106z"/>
<path d="M500.537,450.158h-57.972v-97.761C481.875,346.074,512,311.98,512,270.982c0-25.212-11.338-48.589-30.737-64.177
	c2.376-6.251,3.609-12.913,3.609-19.662c0-30.55-24.894-55.404-55.493-55.404c-13.879,0-26.797,4.992-36.886,13.159v-31.875h18.79
	c5.765,0,10.439-4.673,10.439-10.439V51.402c0-5.765-4.673-10.439-10.439-10.439H10.439C4.673,40.964,0,45.637,0,51.402v51.182
	c0,5.765,4.673,10.439,10.439,10.439h18.79v308.941h-8.351c-5.765,0-10.439,4.673-10.439,10.439v28.195
	c0,5.765,4.673,10.439,10.439,10.439h145.81c5.765,0,10.439-4.673,10.439-10.439v-28.195c0-5.765-4.673-10.439-10.439-10.439h-9.089
	V253.837c0-29.258,23.893-53.062,53.261-53.062c25.302,0,46.525,17.674,51.921,41.276c0.018,1.284,0.27,2.508,0.712,3.64
	c0.412,2.657,0.628,5.376,0.628,8.145v168.128h-9.121c-5.765,0-10.439,4.673-10.439,10.439v28.195
	c0,5.765,4.673,10.439,10.439,10.439h245.536c5.765,0,10.439-4.673,10.439-10.439C510.974,454.832,506.303,450.158,500.537,450.158z
	 M400.876,421.963h-8.383v-77.193c9.107,4.528,19.02,7.361,29.196,8.317v97.07h-10.374v-17.756
	C411.314,426.637,406.641,421.963,400.876,421.963z M429.378,152.616c19.087,0,34.616,15.489,34.616,34.527
	c0,6.234-1.687,12.346-4.878,17.673c-2.908,4.854-1.419,11.141,3.358,14.176c17.939,11.395,28.648,30.83,28.648,51.991
	c0,29.452-20.828,54.127-48.557,60.171v-26.387l28.866-28.866c4.076-4.076,4.077-10.686,0-14.762
	c-4.076-4.077-10.686-4.076-14.762,0l-14.105,14.104v-30.726c0-5.765-4.673-10.439-10.439-10.439s-10.439,4.673-10.439,10.439v2.982
	l-0.86-0.86c-4.076-4.075-10.686-4.075-14.763,0c-4.076,4.076-4.076,10.686,0,14.763l15.624,15.624v55.088
	c-10.609-1.295-20.553-5.28-29.196-11.729v-133.24C392.492,168.75,409.729,152.616,429.378,152.616z M20.877,61.841h379.966v30.304
	h-18.79H39.667h-18.79V61.841z M156.248,450.158H31.316v-7.317h124.933V450.158z M50.105,421.963V295.004h32.643
	c5.765,0,10.439-4.673,10.439-10.439c0-5.765-4.673-10.439-10.439-10.439H50.105v-21.786h86.654
	c-0.01,0.499-0.038,0.994-0.038,1.496v168.128H50.105V421.963z M210.86,179.898c-33.063,0-61.132,21.7-70.66,51.566H50.105v-76.356
	h255.888c5.765,0,10.439-4.673,10.439-10.439c0-5.765-4.673-10.439-10.439-10.439H50.105v-21.206h321.51v118.441H281.52
	C271.992,201.598,243.924,179.898,210.86,179.898z M284.961,252.341h86.654v21.786H338.96c-5.765,0-10.439,4.673-10.439,10.439
	c0,5.765,4.673,10.439,10.439,10.439h32.655v126.959h-86.617V253.837C284.999,253.334,284.971,252.84,284.961,252.341z
	 M265.44,450.158v-7.317h124.998v7.317H265.44z"/>
<g>
</g>
<g>
</g>
<g>
</g>
<g>
</g>
<g>
</g>
<g>
</g>
<g>
</g>
<g>
</g>
<g>
</g>
<g>
</g>
<g>
</g>
<g>
</g>
<g>
</g>
<g>
</g>
<g>
</g>
</svg>
