<?xml version="1.0" encoding="iso-8859-1"?>
<!-- Generator: Adobe Illustrator 19.0.0, SVG Export Plug-In . SVG Version: 6.00 Build 0)  -->
<svg version="1.1" id="Layer_1" xmlns="http://www.w3.org/2000/svg" xmlns:xlink="http://www.w3.org/1999/xlink" x="0px" y="0px"
	 viewBox="0 0 512 512" style="enable-background:new 0 0 512 512;" xml:space="preserve">
<path style="fill:#FFB655;" d="M457.699,248.267l-23.274-0.002v-69.841c0-12.853-10.42-23.273-23.273-23.273H385.78
	c-9.675-54.09-52.416-96.832-106.507-106.507V23.273C279.273,10.42,268.853,0,256,0c-12.853,0-23.273,10.42-23.273,23.273v25.372
	c-54.09,9.675-96.832,52.416-106.507,106.507h-25.372c-12.853,0-23.273,10.42-23.273,23.273v69.82l-23.271-0.002
	c-0.002,0,0,0-0.002,0c-6.172,0-12.091,2.453-16.455,6.816c-4.366,4.364-6.817,10.283-6.817,16.457v217.212
	C31.03,501.58,41.45,512,54.303,512h155.152h93.091h155.152c12.853,0,23.273-10.42,23.273-23.273V271.54
	C480.97,258.687,470.551,248.269,457.699,248.267z"/>
<path style="fill:#FF0C38;" d="M325.818,488.727v-23.273v-46.545h-23.273h-23.273h-46.545h-23.273h-23.273v46.545v23.273
	c0,12.853,10.42,23.273,23.273,23.273h93.091C315.398,512,325.818,501.58,325.818,488.727z"/>
<g>
	<path style="fill:#A78966;" d="M232.727,418.909h46.545h23.273h23.273h7.758c12.853,0,23.273-10.42,23.273-23.273
		s-10.42-23.273-23.273-23.273h-31.03h-93.091h-31.03c-12.853,0-23.273,10.42-23.273,23.273s10.42,23.273,23.273,23.273h7.758
		h23.273H232.727z"/>
	<path style="fill:#A78966;" d="M256,0c-12.853,0-23.273,10.42-23.273,23.273v25.372H256h23.273V23.273
		C279.273,10.42,268.853,0,256,0z"/>
	<path style="fill:#A78966;" d="M411.151,155.152H385.78H362.08h-23.999H256h-82.081H149.92H126.22h-25.372
		c-12.853,0-23.273,10.42-23.273,23.273v69.82l23.273,0.002L256,248.255l155.152,0.009l23.273,0.002v-69.841
		C434.424,165.571,424.004,155.152,411.151,155.152z"/>
</g>
<path style="fill:#806749;" d="M256,0c-12.853,0-23.273,10.42-23.273,23.273v25.372H256V0z"/>
<g>
	<path style="fill:#EE8700;" d="M173.919,155.152H256V48.645h-23.273c-54.09,9.675-96.832,52.416-106.507,106.507h23.699H173.919z"
		/>
	<path style="fill:#EE8700;" d="M100.848,248.246l-23.273-0.002l-23.271-0.002c-0.002,0,0,0-0.002,0
		c-6.172,0-12.091,2.453-16.455,6.816c-4.366,4.364-6.817,10.283-6.817,16.457v217.212C31.03,501.58,41.45,512,54.303,512h155.152
		c-12.853,0-23.273-10.42-23.273-23.273v-23.273v-46.545h-7.758c-12.853,0-23.273-10.42-23.273-23.273s10.42-23.273,23.273-23.273
		h31.03H256V248.255L100.848,248.246z"/>
</g>
<path style="fill:#806749;" d="M256,248.255v-93.103h-82.081H149.92H126.22h-25.372c-12.853,0-23.273,10.42-23.273,23.273v69.82
	l23.273,0.002L256,248.255z"/>
<g>
</g>
<g>
</g>
<g>
</g>
<g>
</g>
<g>
</g>
<g>
</g>
<g>
</g>
<g>
</g>
<g>
</g>
<g>
</g>
<g>
</g>
<g>
</g>
<g>
</g>
<g>
</g>
<g>
</g>
</svg>
