<?xml version="1.0" encoding="iso-8859-1"?>
<!-- Generator: Adobe Illustrator 19.0.0, SVG Export Plug-In . SVG Version: 6.00 Build 0)  -->
<svg version="1.1" id="Layer_1" xmlns="http://www.w3.org/2000/svg" xmlns:xlink="http://www.w3.org/1999/xlink" x="0px" y="0px"
	 viewBox="0 0 504.123 504.123" style="enable-background:new 0 0 504.123 504.123;" xml:space="preserve">
<path style="fill:#F46F0C;" d="M429.3,188.881c-4.758,0-9.578-1.308-13.903-4.049L252.062,81.503L88.726,184.84
	c-12.17,7.696-28.247,4.08-35.935-8.074c-7.696-12.17-4.08-28.247,8.082-35.935L252.062,19.858l191.181,120.966
	c12.162,7.696,15.785,23.773,8.082,35.935C446.377,184.596,437.941,188.873,429.3,188.881z"/>
<path style="fill:#EA4918;" d="M88.726,184.84L252.062,81.503L415.397,184.84c4.324,2.741,9.137,4.049,13.903,4.049
	c7.712-0.016,15.116-3.584,20.181-9.893c-1.757-2.15-3.765-4.12-6.231-5.679L252.062,52.35L60.873,173.316
	c-2.481,1.568-4.529,3.568-6.286,5.742C62.779,189.251,77.399,192.008,88.726,184.84z"/>
<path style="fill:#657272;" d="M492.796,382.456h-1.725c-17.715-42.772-51.665-49.955-107.244-55.312L291.808,253.7
	c-1.505-1.197-3.371-1.851-5.293-1.851H65.583c-3.017,0-5.813,1.615-7.341,4.238l-46.844,81.132c-1.504,2.623-1.504,5.853,0,8.483
	l7.341,12.713h-1.063c-4.679,0-8.491,3.805-8.491,8.483v77.777c0,4.695,3.812,8.483,8.491,8.483h394.524h29.696h50.909
	c4.687,0,8.476-3.789,8.476-8.483v-53.728C501.28,386.253,497.483,382.456,492.796,382.456z"/>
<path style="fill:#525E5E;" d="M492.796,382.456h-1.725c-8.428-27.782-51.665-49.955-107.244-55.312L291.808,253.7
	c-1.505-1.197-3.19,2.198-5.104,2.198H80.597c-3.033,0-20.834-2.442-22.355,0.181l-46.844,81.132c-1.504,2.623-1.504,5.853,0,8.483
	l7.341,12.713h-1.063c-4.679,0-8.491,3.805-8.491,8.483v77.777c0,4.695,3.812,8.483,8.491,8.483h394.524h29.696h50.909
	c4.687,0,8.476-3.789,8.476-8.483V390.94C501.28,386.253,497.483,382.456,492.796,382.456z"/>
<path style="fill:#384242;" d="M9.184,410.734v33.942c0,4.695,3.812,8.483,8.491,8.483h394.524h29.696h50.909
	c4.687,0,8.476-3.789,8.476-8.483v-33.942L9.184,410.734L9.184,410.734z"/>
<path style="fill:#222B2B;" d="M504.123,449.607c0,4.301-3.489,7.775-7.782,7.775H7.767c-4.293,0-7.767-3.474-7.767-7.775l0,0
	c0-4.293,3.474-7.767,7.767-7.767h488.566C500.634,441.84,504.123,445.314,504.123,449.607L504.123,449.607z"/>
<path d="M51.121,441.62c0-25.017,20.291-45.308,45.316-45.308s45.3,20.291,45.3,45.308"/>
<path style="fill:#222B2B;" d="M143.573,441.62h-3.663c0-23.977-19.511-43.481-43.473-43.481c-23.977,0-43.488,19.503-43.488,43.481
	h-3.655c0-25.994,21.157-47.135,47.143-47.135C122.423,394.484,143.573,415.634,143.573,441.62z"/>
<circle style="fill:#203547;" cx="96.421" cy="443.376" r="40.881"/>
<path style="fill:#122130;" d="M125.338,414.468c15.974,15.974,15.974,41.85,0,57.817c-15.967,15.959-41.85,15.959-57.817,0"/>
<circle style="fill:#21AA6F;" cx="96.429" cy="443.376" r="25.71"/>
<path style="fill:#118E55;" d="M114.601,425.196c10.051,10.043,10.043,26.317,0,36.368c-10.027,10.027-26.293,10.027-36.352,0"/>
<circle style="fill:#CED8DD;" cx="96.429" cy="443.376" r="22.504"/>
<path style="fill:#B2BBC1;" d="M112.341,427.473c8.791,8.783,8.791,23.04,0,31.823c-8.783,8.791-23.032,8.783-31.823,0"/>
<path style="opacity:0.2;fill:#888F91;enable-background:new    ;" d="M106.874,443.376c0,5.774-4.679,12.123-10.445,12.123
	c-5.758,0-10.445-6.349-10.445-12.123s4.687-10.437,10.445-10.437C102.203,432.939,106.874,437.602,106.874,443.376z"/>
<circle style="fill:#E7EFF2;" cx="96.429" cy="443.376" r="10.445"/>
<path style="fill:#DAE6EA;" d="M96.429,432.939c5.766,0,10.445,4.663,10.445,10.437s-4.679,10.453-10.445,10.453"/>
<path style="fill:#666E70;" d="M96.429,420.88c-1.032,0-2.032,0.095-3.017,0.228c0.402,3.23,1.599,5.577,3.017,5.577
	c1.402,0,2.591-2.347,3.017-5.577C98.462,420.966,97.461,420.88,96.429,420.88z"/>
<path style="fill:#535A5B;" d="M96.429,426.685c1.402,0,2.591-2.347,3.017-5.577c-0.985-0.142-1.985-0.228-3.017-0.228"/>
<path style="fill:#666E70;" d="M93.428,465.597c1.985,0.276,4.001,0.276,6.018,0c-0.449-3.214-1.615-5.522-3.017-5.522
	C95.011,460.075,93.846,462.383,93.428,465.597z"/>
<path style="fill:#535A5B;" d="M99.446,465.597c-0.449-3.214-1.615-5.522-3.017-5.522"/>
<path style="fill:#666E70;" d="M78.533,429.773c2.591,1.993,5.088,2.796,6.081,1.804c1-0.992,0.189-3.489-1.796-6.081
	C81.195,426.724,79.77,428.15,78.533,429.773z"/>
<path style="fill:#535A5B;" d="M84.614,431.577c1-0.992,0.189-3.489-1.796-6.081"/>
<path style="fill:#666E70;" d="M114.263,456.932c-2.576-1.938-5.033-2.733-6.026-1.749c-1.008,1-0.205,3.458,1.764,6.034
	c0.788-0.614,1.631-1.197,2.339-1.922C113.065,458.571,113.64,457.744,114.263,456.932z"/>
<path style="fill:#535A5B;" d="M112.341,459.296c0.725-0.725,1.3-1.544,1.922-2.363c-2.576-1.938-5.033-2.733-6.026-1.749"/>
<path style="fill:#666E70;" d="M74.153,446.409c3.23-0.441,5.569-1.615,5.569-3.033c0.016-1.394-2.339-2.584-5.569-3.025
	c-0.142,0.992-0.228,2.001-0.228,3.025C73.925,444.408,74.012,445.409,74.153,446.409z"/>
<path style="fill:#535A5B;" d="M79.722,443.376c0.016-1.394-2.339-2.584-5.569-3.025c-0.142,0.992-0.228,2.001-0.228,3.025"/>
<path style="fill:#666E70;" d="M113.12,443.376c0,1.41,2.308,2.591,5.506,3.025c0.291-2.016,0.291-4.017,0.016-6.042
	C115.428,440.801,113.12,441.982,113.12,443.376z"/>
<path style="fill:#535A5B;" d="M118.642,440.359c-3.214,0.441-5.522,1.623-5.522,3.017"/>
<path style="fill:#666E70;" d="M78.541,456.995c1.229,1.623,2.655,3.048,4.285,4.285c1.985-2.599,2.788-5.089,1.796-6.081
	C83.621,454.199,81.148,455.003,78.541,456.995z"/>
<path style="fill:#535A5B;" d="M82.826,461.281c1.985-2.599,2.788-5.089,1.796-6.081"/>
<path style="fill:#666E70;" d="M110.048,425.504c-1.993,2.584-2.812,5.088-1.804,6.073c0.992,0.992,3.482,0.181,6.081-1.796
	C113.089,428.15,111.655,426.724,110.048,425.504z"/>
<path style="fill:#535A5B;" d="M110.048,425.504c-1.993,2.584-2.812,5.088-1.804,6.073"/>
<path d="M365.032,441.62c0-25.017,20.275-45.308,45.308-45.308c25.017,0,45.308,20.291,45.308,45.308"/>
<path style="fill:#222B2B;" d="M457.468,441.62h-3.655c0-23.977-19.503-43.481-43.481-43.481c-23.977,0-43.481,19.503-43.481,43.481
	h-3.647c0-25.994,21.157-47.135,47.12-47.135C436.334,394.484,457.468,415.634,457.468,441.62z"/>
<circle style="fill:#203547;" cx="410.34" cy="443.376" r="40.889"/>
<path style="fill:#122130;" d="M439.249,414.468c15.974,15.974,15.974,41.85,0,57.817c-15.982,15.959-41.858,15.959-57.832,0"/>
<circle style="fill:#21AA6F;" cx="410.34" cy="443.376" r="25.718"/>
<path style="fill:#118E55;" d="M428.505,425.196c10.043,10.043,10.035,26.317,0,36.368c-10.035,10.027-26.309,10.027-36.352,0"/>
<circle style="fill:#CED8DD;" cx="410.333" cy="443.376" r="22.496"/>
<path style="fill:#B2BBC1;" d="M426.244,427.473c8.783,8.783,8.783,23.04,0,31.823c-8.791,8.791-23.048,8.783-31.839,0"/>
<path style="opacity:0.2;fill:#888F91;enable-background:new    ;" d="M420.801,443.376c0,5.774-4.703,12.123-10.468,12.123
	c-5.758,0-10.445-6.349-10.445-12.123s4.687-10.437,10.445-10.437C416.098,432.939,420.801,437.602,420.801,443.376z"/>
<circle style="fill:#E7EFF2;" cx="410.34" cy="443.376" r="10.461"/>
<path style="fill:#DAE6EA;" d="M410.333,432.939c5.766,0,10.468,4.663,10.468,10.437s-4.703,10.453-10.468,10.453"/>
<path style="fill:#666E70;" d="M410.333,420.88c-1.024,0-2.009,0.095-3.017,0.228c0.418,3.23,1.607,5.577,3.017,5.577
	s2.607-2.347,3.04-5.577C412.373,420.966,411.38,420.88,410.333,420.88z"/>
<path style="fill:#535A5B;" d="M410.333,426.685c1.41,0,2.607-2.347,3.04-5.577c-1-0.142-1.993-0.228-3.04-0.228"/>
<path style="fill:#666E70;" d="M407.324,465.597c2.001,0.276,4.025,0.276,6.049,0c-0.48-3.214-1.646-5.522-3.04-5.522
	C408.923,460.075,407.741,462.383,407.324,465.597z"/>
<path style="fill:#535A5B;" d="M413.373,465.597c-0.48-3.214-1.646-5.522-3.04-5.522"/>
<path style="fill:#666E70;" d="M392.428,429.773c2.615,1.993,5.088,2.796,6.097,1.804c0.992-0.992,0.165-3.489-1.804-6.081
	C395.106,426.724,393.681,428.15,392.428,429.773z"/>
<path style="fill:#535A5B;" d="M398.533,431.577c0.992-0.992,0.165-3.489-1.804-6.081"/>
<path style="fill:#666E70;" d="M428.15,456.932c-2.552-1.938-5.018-2.733-6.018-1.749c-0.992,1-0.181,3.458,1.757,6.034
	c0.811-0.614,1.631-1.197,2.355-1.922S427.552,457.744,428.15,456.932z"/>
<path style="fill:#535A5B;" d="M426.244,459.296c0.725-0.725,1.308-1.544,1.906-2.363c-2.552-1.938-5.018-2.733-6.018-1.749"/>
<path style="fill:#666E70;" d="M388.064,446.409c3.222-0.441,5.569-1.615,5.569-3.033c0.016-1.394-2.347-2.584-5.569-3.025
	c-0.134,0.992-0.228,2.001-0.228,3.025C387.828,444.408,387.931,445.409,388.064,446.409z"/>
<path style="fill:#535A5B;" d="M393.633,443.376c0.016-1.394-2.347-2.584-5.569-3.025c-0.134,0.992-0.228,2.001-0.228,3.025"/>
<path style="fill:#666E70;" d="M427.032,443.376c0,1.41,2.308,2.591,5.506,3.025c0.284-2.016,0.284-4.017,0.016-6.042
	C429.34,440.801,427.032,441.982,427.032,443.376z"/>
<path style="fill:#535A5B;" d="M432.553,440.359c-3.214,0.441-5.522,1.623-5.522,3.017"/>
<path style="fill:#666E70;" d="M392.428,456.995c1.245,1.623,2.678,3.048,4.293,4.285c1.977-2.599,2.796-5.089,1.804-6.081
	C397.525,454.199,395.043,455.003,392.428,456.995z"/>
<path style="fill:#535A5B;" d="M396.721,461.281c1.977-2.599,2.796-5.089,1.804-6.081"/>
<path style="fill:#666E70;" d="M423.952,425.504c-1.985,2.584-2.804,5.088-1.812,6.073c1,0.992,3.49,0.181,6.089-1.796
	C427.008,428.15,425.551,426.724,423.952,425.504z"/>
<path style="fill:#535A5B;" d="M423.952,425.504c-1.985,2.584-2.804,5.088-1.812,6.073"/>
<path style="fill:#EA7C0F;" d="M451.261,382.275h39.771c-1.694-5.427-4.742-10.642-8.925-15.557h-44.292L451.261,382.275z"/>
<path style="fill:#FFA300;" d="M442.951,366.726l13.438,15.557h34.635c-1.694-5.427-4.742-10.642-8.925-15.557H442.951z"/>
<path style="fill:#BC043D;" d="M10.587,343.741c0.197,0.677,0.449,1.331,0.819,1.953l6.94,12.02h37.683l-18.558-16.967H10.587
	V343.741z"/>
<g>
	<path style="fill:#51859B;" d="M261.246,326.947h122.352l-74.413-59.392h-47.939c-4.695,0-8.491,3.797-8.491,8.483v42.425
		C252.755,323.151,256.551,326.947,261.246,326.947z"/>
	<path style="fill:#51859B;" d="M112.632,326.947H28.979l35.714-59.392h47.939c4.695,0,8.483,3.797,8.483,8.483v42.425
		C121.116,323.151,117.327,326.947,112.632,326.947z"/>
	<path style="fill:#51859B;" d="M229.124,267.555h-35.541h-12.406h-35.549c-4.679,0-8.476,3.797-8.476,8.483v42.425
		c0,4.632,3.71,8.365,8.334,8.452l-0.024,0.031h0.165h83.495h0.165l-0.016-0.031c4.616-0.087,8.326-3.82,8.326-8.452v-42.425
		C237.6,271.352,233.811,267.555,229.124,267.555z"/>
</g>
<g>
	<polygon style="fill:#81B6C9;" points="49.16,293.384 74.988,267.555 64.693,267.555 	"/>
	<path style="fill:#81B6C9;" d="M112.632,267.555H86.938L31.13,323.379l-2.15,3.568h31.634l57.36-57.36
		C116.492,268.375,114.688,267.555,112.632,267.555z"/>
	<polygon style="fill:#81B6C9;" points="121.116,307.326 121.116,291.021 85.189,326.947 101.494,326.947 	"/>
	<path style="fill:#81B6C9;" d="M237.6,318.464v-9.767l-18.243,18.251h9.767h0.165l-0.016-0.031
		C233.889,326.829,237.6,323.096,237.6,318.464z"/>
	<path style="fill:#81B6C9;" d="M235.827,271.092c-1.552-2.095-3.899-3.537-6.711-3.537h-35.541h-12.406h-35.549
		c-4.679,0-8.476,3.797-8.476,8.483v42.425c0,4.632,3.71,8.365,8.334,8.452l-0.024,0.031h0.165h34.336L235.827,271.092z"/>
	<path style="fill:#81B6C9;" d="M310.044,268.241l-55.383,55.375c1.56,1.985,3.86,3.332,6.585,3.332h23.142l44.04-44.04
		L310.044,268.241z"/>
	<polygon style="fill:#81B6C9;" points="351.161,301.064 342.095,293.825 308.972,326.947 325.278,326.947 	"/>
	<polygon style="fill:#81B6C9;" points="298.772,267.555 278.741,267.555 252.755,293.541 252.755,313.557 	"/>
</g>
<g>
	<path style="fill:#384242;" d="M284.05,341.26c0,1.764-1.434,3.182-3.182,3.182h-16.967c-1.757,0-3.174-1.426-3.174-3.182l0,0
		c0-1.757,1.426-3.174,3.174-3.174h16.967C282.616,338.085,284.05,339.511,284.05,341.26L284.05,341.26z"/>
	<path style="fill:#384242;" d="M163.139,341.26c0,1.764-1.434,3.182-3.174,3.182H142.99c-1.757,0-3.174-1.426-3.174-3.182l0,0
		c0-1.757,1.426-3.174,3.174-3.174h16.975C161.705,338.085,163.139,339.511,163.139,341.26L163.139,341.26z"/>
	<path style="fill:#384242;" d="M497.743,388.805c0,1.371-1.103,2.473-2.481,2.473h-70.695c-1.371,0-2.458-1.111-2.458-2.473l0,0
		c0-1.363,1.095-2.465,2.458-2.465h70.695C496.648,386.339,497.743,387.45,497.743,388.805L497.743,388.805z"/>
	<path style="fill:#384242;" d="M101.092,388.805c0,1.371-1.103,2.473-2.473,2.473h-70.68c-1.386,0-2.489-1.111-2.489-2.473l0,0
		c0-1.363,1.111-2.465,2.489-2.465h70.68C99.99,386.339,101.092,387.45,101.092,388.805L101.092,388.805z"/>
</g>
<path style="fill:#525E5E;" d="M363.071,324.206c1.623,1.678,1.591,4.387-0.102,6.034l0,0c-1.67,1.631-4.38,1.607-6.026-0.087
	l-57.643-59.29c-1.646-1.701-1.615-4.403,0.071-6.042l0,0c1.678-1.638,4.387-1.615,6.034,0.087L363.071,324.206z"/>
<g>
</g>
<g>
</g>
<g>
</g>
<g>
</g>
<g>
</g>
<g>
</g>
<g>
</g>
<g>
</g>
<g>
</g>
<g>
</g>
<g>
</g>
<g>
</g>
<g>
</g>
<g>
</g>
<g>
</g>
</svg>
